<svg xmlns="http://www.w3.org/2000/svg" xmlns:xlink="http://www.w3.org/1999/xlink" width="71.216" height="71.216" viewBox="0 0 71.216 71.216">
  <defs>
    <linearGradient id="linear-gradient" x1="0.676" y1="0.084" x2="0.448" y2="0.96" gradientUnits="objectBoundingBox">
      <stop offset="0" stop-color="#f5bc36"/>
      <stop offset="1" stop-color="#f69401"/>
    </linearGradient>
    <filter id="Ellipse_3" x="0" y="0" width="71.216" height="71.216" filterUnits="userSpaceOnUse">
      <feOffset dy="3" input="SourceAlpha"/>
      <feGaussianBlur stdDeviation="3" result="blur"/>
      <feFlood flood-opacity="0.161"/>
      <feComposite operator="in" in2="blur"/>
      <feComposite in="SourceGraphic"/>
    </filter>
  </defs>
  <g id="Group_36" data-name="Group 36" transform="translate(-15.784 -474)">
    <g transform="matrix(1, 0, 0, 1, 15.78, 474)" filter="url(#Ellipse_3)">
      <g id="Ellipse_3-2" data-name="Ellipse 3" transform="translate(9 6)" stroke="#fff" stroke-width="2" fill="url(#linear-gradient)">
        <circle cx="26.608" cy="26.608" r="26.608" stroke="none"/>
        <circle cx="26.608" cy="26.608" r="25.608" fill="none"/>
      </g>
    </g>
    <g id="bitcoin-logo" transform="translate(41.509 493)">
      <path id="Path_2193" data-name="Path 2193" d="M84.025,13.7a4.714,4.714,0,0,0-2.747-1.617,3.722,3.722,0,0,0,2.057-4.05,4,4,0,0,0-.573-1.8,3.6,3.6,0,0,0-1.3-1.224,7.13,7.13,0,0,0-1.774-.707,14,14,0,0,0-2.2-.353V0H75.076V3.846q-.628,0-1.915.031V0H70.744V3.956q-.518.016-1.523.016l-3.328-.016V6.531h1.742a1.247,1.247,0,0,1,1.4,1.067V12.1a1.6,1.6,0,0,1,.251.016h-.251v6.31a.838.838,0,0,1-.91.8H66.38L65.893,22.1h3.14q.3,0,.863.007t.848.008v4h2.418V22.166q.659.016,1.915.016v3.94h2.417v-4a18.794,18.794,0,0,0,2.284-.235,9.3,9.3,0,0,0,1.907-.542,5.147,5.147,0,0,0,1.522-.918,4.334,4.334,0,0,0,1.013-1.4,5.939,5.939,0,0,0,.51-1.963A4.65,4.65,0,0,0,84.025,13.7Zm-10.816-7,.62-.008q.51-.008.848-.016t.911.039a8.662,8.662,0,0,1,.965.126,5.378,5.378,0,0,1,.863.259,2.34,2.34,0,0,1,.753.439,2.18,2.18,0,0,1,.479.659,2.058,2.058,0,0,1,.2.918,2.184,2.184,0,0,1-.141.8,1.509,1.509,0,0,1-.424.6,4.293,4.293,0,0,1-.581.424,2.66,2.66,0,0,1-.761.29q-.463.11-.808.173a6.617,6.617,0,0,1-.863.086q-.518.023-.785.031t-.73,0l-.542-.008V6.7h0Zm6.6,10.69a2.232,2.232,0,0,1-.385.628,2.181,2.181,0,0,1-.62.471,5.32,5.32,0,0,1-.746.33,6,6,0,0,1-.871.22q-.511.094-.9.133t-.918.063q-.534.023-.832.023t-.754-.008q-.456-.007-.581-.008V13.94q.125,0,.746-.016t1.013-.015q.392,0,1.083.047a9.257,9.257,0,0,1,1.162.141,7.637,7.637,0,0,1,1.028.291,2.982,2.982,0,0,1,.9.479,2.356,2.356,0,0,1,.581.722,2.242,2.242,0,0,1,.086,1.805Z" transform="translate(-65.893)" fill="#fefefe"/>
    </g>
  </g>
</svg>
