<svg xmlns="http://www.w3.org/2000/svg" width="25.928" height="22" viewBox="0 0 25.928 22">
  <path id="tag" d="M11.282,21.285.713,10.716a2.445,2.445,0,0,1,0-3.452L2,5.982V3.011a.835.835,0,0,1,.835-.834H5.8L7.082.9a2.441,2.441,0,0,1,3.452,0l.24.24.419-.42a2.441,2.441,0,0,1,3.452,0L25.214,11.284a2.444,2.444,0,0,1,0,3.452L18.846,21.1a2.442,2.442,0,0,1-3.452,0l-.24-.238-.419.419a2.442,2.442,0,0,1-3.452,0ZM3.663,6.327a.832.832,0,0,1-.244.589L1.893,8.443a.775.775,0,0,0,0,1.094L12.462,20.1a.773.773,0,0,0,1.094,0l6.368-6.368a.773.773,0,0,0,0-1.094L10.184,2.9h0l-.828-.829a.774.774,0,0,0-1.094,0L6.734,3.6a.831.831,0,0,1-.589.245H3.663Zm8.709-4.433-.419.42,9.15,9.15a2.441,2.441,0,0,1,0,3.452l-4.77,4.769.24.24a.773.773,0,0,0,1.094,0l6.368-6.369a.774.774,0,0,0,0-1.093L13.466,1.894a.774.774,0,0,0-1.093,0Zm-8.35,7.8a.833.833,0,0,1,0-1.179l4.3-4.3A.834.834,0,0,1,9.5,5.394l-4.3,4.3a.834.834,0,0,1-1.179,0Z" fill="#cbd7e1"/>
</svg>
