<svg id="menu" xmlns="http://www.w3.org/2000/svg" width="18.003" height="15.16" viewBox="0 0 18.003 15.16">
  <g id="Group_6" data-name="Group 6" transform="translate(0 0)">
    <path id="Path_2186" data-name="Path 2186" d="M1.044,7.9H16.959a1.064,1.064,0,0,0,0-2.128H1.044a1.064,1.064,0,0,0,0,2.128Zm15.915,4.388H1.044a1.064,1.064,0,0,0,0,2.128H16.959a1.064,1.064,0,0,0,0-2.128Zm0,6.516H1.044a1.064,1.064,0,0,0,0,2.128H16.959a1.064,1.064,0,0,0,0-2.128Z" transform="translate(0 -5.776)" fill="#bfc5d1"/>
  </g>
</svg>
