<svg xmlns="http://www.w3.org/2000/svg" width="27.124" height="22.304" viewBox="0 0 27.124 22.304">
  <g id="wallet_2_" data-name="wallet (2)" transform="translate(0.5 -26.471)">
    <g id="Group_5" data-name="Group 5" transform="translate(0 26.971)">
      <path id="Path_2184" data-name="Path 2184" d="M24.88,34.252V30.859a3.85,3.85,0,0,0-3.888-3.888H3.888A3.85,3.85,0,0,0,0,30.859V44.387a3.85,3.85,0,0,0,3.888,3.888H20.993a3.85,3.85,0,0,0,3.888-3.888V41.15a2.7,2.7,0,0,0,1.244-2.205V36.457A2.7,2.7,0,0,0,24.88,34.252Zm-.311,4.693a1.063,1.063,0,0,1-1.089,1.089H15.55a1.063,1.063,0,0,1-1.089-1.089V36.457a1.063,1.063,0,0,1,1.089-1.089h7.931a1.063,1.063,0,0,1,1.089,1.089ZM20.993,46.72H3.888a2.392,2.392,0,0,1-2.333-2.333V30.859a2.392,2.392,0,0,1,2.333-2.333H20.993a2.392,2.392,0,0,1,2.333,2.333v2.955H15.55a2.725,2.725,0,0,0-2.644,2.644v2.488a2.725,2.725,0,0,0,2.644,2.644h7.775v2.8A2.392,2.392,0,0,1,20.993,46.72Z" transform="translate(0 -26.971)" fill="#ffb13e" stroke="#ffb13e" stroke-linecap="round" stroke-linejoin="round" stroke-width="1"/>
      <path id="Path_2185" data-name="Path 2185" d="M174.167,137.7a.935.935,0,0,0-.155.622.571.571,0,0,0,.155.466,1.179,1.179,0,0,0,.622.311c.155,0,.311-.155.466-.311.156,0,.311-.311.311-.466a.808.808,0,0,0-.311-.622A.752.752,0,0,0,174.167,137.7Z" transform="translate(-158.462 -127.595)" fill="#ffb13e" stroke="#ffb13e" stroke-linecap="round" stroke-linejoin="round" stroke-width="1"/>
    </g>
  </g>
</svg>
